<svg xmlns="http://www.w3.org/2000/svg" viewBox="0 0 1200 1200"><path d="M600.916.919c331.2 0 600 268.8 600 600s-268.8 600-600 600-600-268.8-600-600 268.8-600 600-600z" fill="#283a97"/><g transform="matrix(1.598278 0 0 1.598278 100.586331 73.63824)"><path d="M472.4 274.8v256.1c0 7.9-2.9 15.1-7.6 20.6 9.9-11.7 11-30.3-1.7-43L312.7 358.1l105.7-105.7c19.9-19.9 54.1-5.8 54.1 22.4h-.1z" fill="#f5c1bc"/><path d="M393 178.9c8.4 3 14.4 11.1 14.4 20.5s-9.8 21.8-21.8 21.8-21.8-9.8-21.8-21.8 6-17.5 14.4-20.5v-36.1c0-36.2-29.4-65.6-65.6-65.6S247 106.6 247 142.8v36.1c8.4 3 14.4 11.1 14.4 20.5s-9.8 21.8-21.8 21.8-21.8-9.8-21.8-21.8 6-17.5 14.4-20.5v-36.1c0-44.4 36.1-80.4 80.4-80.4S393 98.5 393 142.8v36.1h0zm70 329.6L312.6 358.1 206.9 252.4c-19.9-19.9-54.1-5.8-54.1 22.4v256.1c0 7.9 2.9 15.1 7.7 20.7.3.4.7.7 1 1.1s.7.7 1.1 1.1c.3.3.6.6.9.8s.6.5.8.7c3.9 3.2 8.6 5.5 13.8 6.6.5 0 1 .2 1.6.3 1 0 2 .3 3.1.3h259.6c1.1 0 2.1-.2 3.1-.3.5 0 1.1-.2 1.6-.3 5.2-1.1 9.9-3.4 13.8-6.6.4-.3.7-.6 1.1-.9a5.73 5.73 0 0 0 1.1-1.1c.3-.3.6-.6.8-.9.3-.3.5-.6.8-.9 9.9-11.7 11-30.3-1.7-43h0z" fill="#fff"/></g></svg>